<svg xmlns="http://www.w3.org/2000/svg" viewBox="0 0 680 560" width="680" height="560">
<polygon points="222,215 147.0,203.2 72,188 147.0,211.6 222,229" fill="#8b7a55"/>
<polygon points="222,240 127.0,235.0 32,228 127.0,244.6 222,256" fill="#6e5f42"/>
<polygon points="222,265 115.0,266.4 8,267 115.0,277.2 222,283" fill="#8b7a55"/>
<polygon points="222,293 118.0,301.1 14,310 118.0,311.9 222,311" fill="#6e5f42"/>
<polygon points="222,320 131.0,333.9 40,350 131.0,343.5 222,336" fill="#8b7a55"/>
<polygon points="222,345 147.0,363.8 72,386 147.0,372.2 222,359" fill="#6e5f42"/>
<polygon points="458,215 533.0,203.2 608,188 533.0,211.6 458,229" fill="#8b7a55"/>
<polygon points="458,240 553.0,235.0 648,228 553.0,244.6 458,256" fill="#6e5f42"/>
<polygon points="458,265 565.0,266.4 672,267 565.0,277.2 458,283" fill="#8b7a55"/>
<polygon points="458,293 562.0,301.1 666,310 562.0,311.9 458,311" fill="#6e5f42"/>
<polygon points="458,320 549.0,333.9 640,350 549.0,343.5 458,336" fill="#8b7a55"/>
<polygon points="458,345 533.0,363.8 608,386 533.0,372.2 458,359" fill="#6e5f42"/>
<path d="M102.5,199.2 A258,258 0 0 1 577.5,199.2 L537.0,216.4 A214,214 0 0 0 143.0,216.4 Z" fill="#2d2c28"/>
<path d="M102.5,400.8 A258,258 0 0 0 577.5,400.8 L537.0,383.6 A214,214 0 0 1 143.0,383.6 Z" fill="#2d2c28"/>
<polygon points="102.7,188.4 150.6,208.7 122.8,207.8" fill="#6e5f42"/>
<polygon points="585.1,206.8 537.2,227.1 557.2,207.8" fill="#6e5f42"/>
<polygon points="94.9,393.2 142.8,372.9 122.8,392.2" fill="#6e5f42"/>
<polygon points="577.3,411.6 529.4,391.3 557.2,392.2" fill="#6e5f42"/>
<defs><path id="topArc" d="M133.4,190.1 A234,234 0 0 1 546.6,190.1"/><path id="botArc" d="M124.9,386.9 A232,232 0 0 0 555.1,386.9"/></defs>
<text font-family="Montserrat,Arial,sans-serif" font-weight="700" font-size="40" letter-spacing="14" fill="#efe9dd"><textPath href="#topArc" startOffset="50%" text-anchor="middle">EGLE</textPath></text>
<text font-family="Montserrat,Arial,sans-serif" font-weight="700" font-size="30" letter-spacing="12" fill="#efe9dd"><textPath href="#botArc" startOffset="50%" text-anchor="middle">MOTORS</textPath></text>
<circle cx="340" cy="300" r="152" fill="#8b7a55"/>
<circle cx="340" cy="300" r="140" fill="#efe9dd"/>
<circle cx="340" cy="300" r="132" fill="#8b7a55"/>
<circle cx="340" cy="300" r="118" fill="#6e5f42"/>
<g transform="translate(340,308) scale(1.05)" fill="#ffffff">
<path d="M0,42 C-6,30 -8,18 -5,6 C-9,10 -14,10 -16,4 C-12,6 -9,3 -9,-2 C-6,4 -2,4 0,0 C2,4 6,4 9,-2 C9,3 12,6 16,4 C14,10 9,10 5,6 C8,18 6,30 0,42 Z"/>
<path d="M-3,2 C-18,-6 -30,-20 -34,-40 C-30,-33 -24,-30 -20,-31 C-26,-40 -30,-52 -30,-64 C-25,-55 -18,-49 -13,-49 C-18,-60 -20,-70 -18,-80 C-13,-70 -7,-63 -3,-60 C-4,-46 -3,-30 -1,-16 Z"/>
<path d="M3,2 C18,-6 30,-20 34,-40 C30,-33 24,-30 20,-31 C26,-40 30,-52 30,-64 C25,-55 18,-49 13,-49 C18,-60 20,-70 18,-80 C13,-70 7,-63 3,-60 C4,-46 3,-30 1,-16 Z"/>
<path d="M0,-58 C-5,-64 -5,-72 0,-78 C2,-74 6,-74 8,-77 C6,-72 8,-68 5,-64 C3,-60 2,-59 0,-58 Z"/>
<circle cx="6" cy="-73" r="2.2" fill="#6e5f42"/>
</g>
<rect x="339" y="10" width="2" height="34" fill="#2d2c28"/>
</svg>